<svg width="40" height="32" viewBox="0 0 40 32" fill="none" xmlns="http://www.w3.org/2000/svg">
<path d="M11.6352 0C12.7877 0 13.8527 0.111442 14.8302 0.445768C15.8053 0.668652 16.6078 1.13352 17.3203 1.69073C18.0328 2.24794 18.5628 3.04714 18.9228 4.06922C19.2728 5.08812 19.4628 6.33309 19.4628 7.68949C19.4628 9.26879 19.1978 10.6252 18.5728 11.6441C18.0353 12.663 17.1578 13.5736 16.0803 14.2455C17.5953 14.8059 18.7478 15.8248 19.4503 17.1812C20.1528 18.5376 20.6028 20.2283 20.6028 22.1578C20.6028 23.7371 20.3403 25.0935 19.8903 26.2271C19.4431 27.3694 18.7691 28.343 17.9353 29.0513C17.1353 29.7359 16.1578 30.2931 15.0928 30.6306C14.0496 30.9824 12.9767 31.1706 11.8977 31.191L0 31.2133V0H11.6352ZM10.9227 12.6662C11.8977 12.6662 12.6977 12.3318 13.3152 11.7587C13.9302 11.1856 14.2027 10.1762 14.2027 8.93446C14.2027 8.2467 14.1152 7.57805 13.9402 7.1291C13.7492 6.6755 13.4747 6.28765 13.1402 5.99876C12.7781 5.74546 12.3903 5.5569 11.9877 5.43837C11.5477 5.32693 11.0977 5.32692 10.5702 5.32692H5.42509V12.6821C5.42509 12.6662 10.9227 12.6662 10.9227 12.6662ZM11.1852 26.0169C11.7227 26.0169 12.2502 25.9055 12.7002 25.794C13.1402 25.6826 13.5902 25.4565 13.9402 25.1063C14.2902 24.756 14.5652 24.4217 14.8302 23.8645C15.0053 23.3041 15.1803 22.6195 15.1803 21.8235C15.1803 20.2442 14.8302 19.1107 14.1152 18.3147C13.4027 17.6301 12.4252 17.2958 11.2727 17.2958H5.42509V26.001H11.1877L11.1852 26.0169ZM28.3305 25.9055C29.0438 26.8119 30.1088 27.264 31.5255 27.2619C32.5005 27.2619 33.3906 26.9244 34.1056 26.3512C34.8156 25.672 35.2573 24.9927 35.4306 24.3134H39.7807C39.0657 27.0231 38.0006 28.9526 36.5856 30.1976C35.1706 31.3279 33.4781 31.9998 31.4355 31.9998C30.1292 32.0099 28.8335 31.7018 27.618 31.0923C26.5222 30.5774 25.545 29.7214 24.7754 28.6024C23.9524 27.5615 23.3414 26.2805 22.9954 24.8707C22.5579 23.4028 22.3704 21.8235 22.3704 20.0054C22.3704 18.3147 22.5454 16.7195 22.9954 15.2516C23.4454 13.787 24.0604 12.5388 24.8629 11.4085C25.6629 10.3896 26.6404 9.47893 27.7055 8.91854C28.8927 8.315 30.1597 8.00696 31.438 8.01108C32.9531 8.01108 34.2806 8.34541 35.4331 9.14142C36.5831 9.93744 37.4756 10.8353 38.1881 12.1917C38.9007 13.4335 39.4282 14.9014 39.7907 16.4839C39.9657 18.0631 40.0532 19.6552 39.9657 21.4605H27.0905C27.0905 23.3073 27.6155 24.9948 28.3305 25.9055ZM33.9306 14.0226C33.3056 13.2266 32.3255 12.7776 31.173 12.7776C30.373 12.7776 29.758 13.0005 29.2205 13.338C28.683 13.6755 28.3305 14.134 27.9805 14.5798C27.6541 15.0172 27.4366 15.5678 27.3555 16.1623C27.2655 16.7195 27.1805 17.1812 27.1805 17.6269H35.1706C34.9956 15.9521 34.5481 14.8186 33.9306 14.0226ZM26.1129 2.15242H36.0581V5.19956H26.1129V2.15242Z" fill="#2A2A2A"/>
</svg>
