<svg width="36" height="36" viewBox="0 0 36 36" fill="none" xmlns="http://www.w3.org/2000/svg">
<path d="M2 16.2222C2 9.51822 2 6.16533 4.08356 4.08356C6.16533 2 9.51822 2 16.2222 2H19.7778C26.4818 2 29.8347 2 31.9164 4.08356C34 6.16533 34 9.51822 34 16.2222V19.7778C34 26.4818 34 29.8347 31.9164 31.9164C29.8347 34 26.4818 34 19.7778 34H16.2222C9.51822 34 6.16533 34 4.08356 31.9164C2 29.8347 2 26.4818 2 19.7778V16.2222Z" stroke="#2A2A2A" stroke-width="3"/>
<path d="M25.9987 12.6673C27.4715 12.6673 28.6654 11.4734 28.6654 10.0007C28.6654 8.52789 27.4715 7.33398 25.9987 7.33398C24.5259 7.33398 23.332 8.52789 23.332 10.0007C23.332 11.4734 24.5259 12.6673 25.9987 12.6673Z" fill="#2A2A2A"/>
<path d="M17.9996 24.2237C21.436 24.2237 24.2218 21.438 24.2218 18.0015C24.2218 14.5651 21.436 11.7793 17.9996 11.7793C14.5631 11.7793 11.7773 14.5651 11.7773 18.0015C11.7773 21.438 14.5631 24.2237 17.9996 24.2237Z" stroke="#2A2A2A" stroke-width="3"/>
</svg>
