<svg width="42" height="32" viewBox="0 0 42 32" fill="none" xmlns="http://www.w3.org/2000/svg">
<path fill-rule="evenodd" clip-rule="evenodd" d="M21 0C22.7955 0 24.6372 0.0440002 26.4222 0.116L28.5306 0.212L30.5487 0.326L32.4387 0.448L34.1649 0.576C36.0382 0.712555 37.8009 1.47389 39.143 2.72608C40.4851 3.97826 41.3205 5.64108 41.5023 7.422L41.5863 8.272L41.7438 10.092C41.8908 11.978 42 14.034 42 16C42 17.966 41.8908 20.022 41.7438 21.908L41.5863 23.728C41.559 24.02 41.5317 24.302 41.5023 24.578C41.3204 26.3592 40.4847 28.0223 39.1422 29.2745C37.7997 30.5268 36.0365 31.2879 34.1628 31.424L32.4408 31.55L30.5508 31.674L28.5306 31.788L26.4222 31.884C24.6158 31.9588 22.8081 31.9974 21 32C19.1919 31.9974 17.3841 31.9588 15.5778 31.884L13.4694 31.788L11.4513 31.674L9.5613 31.55L7.8351 31.424C5.9618 31.2874 4.19906 30.5261 2.85699 29.2739C1.51493 28.0217 0.679506 26.3589 0.4977 24.578L0.4137 23.728L0.2562 21.908C0.0956289 19.9423 0.0101724 17.9716 0 16C0 14.034 0.1092 11.978 0.2562 10.092L0.4137 8.272C0.441 7.98 0.4683 7.698 0.4977 7.422C0.679435 5.6414 1.51455 3.97883 2.85619 2.72669C4.19783 1.47454 5.96007 0.713005 7.833 0.576L9.5571 0.448L11.4471 0.326L13.4673 0.212L15.5757 0.116C17.3828 0.0412659 19.1912 0.00259057 21 0ZM16.8 11.15V20.85C16.8 21.774 17.85 22.35 18.69 21.89L27.51 17.04C27.7019 16.9348 27.8613 16.7832 27.9722 16.6007C28.083 16.4181 28.1414 16.2109 28.1414 16C28.1414 15.7891 28.083 15.5819 27.9722 15.3993C27.8613 15.2168 27.7019 15.0652 27.51 14.96L18.69 10.112C18.4984 10.0066 18.281 9.9512 18.0598 9.95123C17.8386 9.95126 17.6212 10.0068 17.4296 10.1122C17.2381 10.2176 17.079 10.3692 16.9685 10.5517C16.858 10.7343 16.7999 10.9413 16.8 11.152V11.15Z" fill="#2A2A2A"/>
</svg>
